<svg xmlns="http://www.w3.org/2000/svg" viewBox="0 0 680.87 147.6"><defs><style>.a{fill:#70f0a9;}</style></defs><path class="a" d="M181.19,43.4h44.58V58.33H201.1V73.69h23.59V88.63H201.1v30.29H181.19Z"/><path class="a" d="M261.26,43.4H281.6v60.16h24.89v15.36H261.26Z"/><path class="a" d="M381.37,102.91H359.19l-4.87,16H334.84l25.1-75.52h22.4l24,75.52h-21ZM371,58.76h-.22l-8.11,29.65h14.93Z"/><path class="a" d="M439.69,100.75q1,.54,2.7,1.29a42.74,42.74,0,0,0,4.06,1.52,38.55,38.55,0,0,0,5,1.24,29,29,0,0,0,5.35.49c3.9,0,6.6-.76,8.12-2.27a7.93,7.93,0,0,0,2.27-5.84,7.58,7.58,0,0,0-.59-3.14,5.89,5.89,0,0,0-1.79-2.22,14.21,14.21,0,0,0-2.92-1.68q-1.72-.75-3.9-1.62l-4.43-1.73a37.33,37.33,0,0,1-7.79-4.06,19.59,19.59,0,0,1-5-4.92,18.38,18.38,0,0,1-2.65-6,30.61,30.61,0,0,1-.81-7.3A21.43,21.43,0,0,1,439.36,55a19.75,19.75,0,0,1,5.68-7,26.76,26.76,0,0,1,8.66-4.33,38.38,38.38,0,0,1,11.09-1.51,81.32,81.32,0,0,1,9.36.59,38.6,38.6,0,0,1,9.69,2.44L483,60A37.15,37.15,0,0,0,476,57.36a31.41,31.41,0,0,0-8.65-1.19A12.13,12.13,0,0,0,460.25,58a6.09,6.09,0,0,0-2.6,5.3,6.92,6.92,0,0,0,.43,2.59A6.12,6.12,0,0,0,459.49,68a12.91,12.91,0,0,0,2.65,2,40.78,40.78,0,0,0,4.17,2l9.09,4.12a32,32,0,0,1,4.86,2.75,19.16,19.16,0,0,1,4.06,3.79,17.06,17.06,0,0,1,2.82,5.3,23.37,23.37,0,0,1,1,7.31,26.29,26.29,0,0,1-2.11,10.87,20.75,20.75,0,0,1-6,7.85,26.26,26.26,0,0,1-9.36,4.7,43.5,43.5,0,0,1-12.07,1.57,60.28,60.28,0,0,1-12.06-1.08q-5.25-1.08-8.06-1.84Z"/><path class="a" d="M561.74,88.19h-15.8v30.73H525.6V43.4h20.34v29h15.8v-29h20.34v75.52H561.74Z"/><path class="a" d="M637.7,91.44l-22.83-48H638l10.39,29h.22l9.85-29h22.39L658,91.44v27.48H637.7Z"/><path class="a" d="M8.65,116.67,19.32,14.72H13.41A13.41,13.41,0,0,0,0,28.13V134.19A13.41,13.41,0,0,0,13.41,147.6H75.47A13.36,13.36,0,0,0,82,145.88L27.72,140.2A21.45,21.45,0,0,1,8.65,116.67Z"/><path class="a" d="M104.1,6.53,42.38.07A13.43,13.43,0,0,0,27.65,12l-11,105.48a13.42,13.42,0,0,0,11.94,14.74l61.72,6.46A13.44,13.44,0,0,0,105,126.75L116,21.27A13.4,13.4,0,0,0,104.1,6.53Z"/></svg>